# xmcd
#
# Track frame offsets:
#	150
#	8762
#	20012
#	30500
#	42472
#	53765
#	64537
#	73670
#	82522
#	93392
#	100320
#	112597
#	123500
#	133780
#
# Disc length: 1933 seconds
#
# Revision: 2
# Processed by: cddbd v1.5.2PL0 Copyright (c) Steve Scherf et al.
# Submitted via: EasyCDDAExtractor 16.0.6.1
#
DISCID=a9078b0e
DTITLE=Waylon Jennings - C-045 Back In The Saddle
DYEAR=1900
DGENRE=country
TTITLE0=Abilene
TTITLE1=Big Mamon
TTITLE2=White Lightnin'
TTITLE3=Crying
TTITLE4=Dream Baby
TTITLE5=Burning Memories
TTITLE6=Jole Blon
TTITLE7=Love's Gonna Live Here
TTITLE8=Money
TTITLE9=Its So Easy
TTITLE10=Don't Think Twice Its Alright
TTITLE11=Lorena
TTITLE12=When Sin Stops, Love Begins
TTITLE13=Sally Was A Good Old Girl
EXTD=
EXTT0=
EXTT1=
EXTT2=
EXTT3=
EXTT4=
EXTT5=
EXTT6=
EXTT7=
EXTT8=
EXTT9=
EXTT10=
EXTT11=
EXTT12=
EXTT13=
PLAYORDER=
